<?xml version="1.0" encoding="UTF-8"?>
<svg xmlns="http://www.w3.org/2000/svg" xmlns:xlink="http://www.w3.org/1999/xlink" viewBox="0 0 400 300" width="400" height="300">
  <defs>
    <style>
      @keyframes pulse {
        0% { opacity: 0.7; }
        50% { opacity: 1; }
        100% { opacity: 0.7; }
      }
      @keyframes float {
        0% { transform: translateY(0); }
        50% { transform: translateY(-5px); }
        100% { transform: translateY(0); }
      }
      .skill-text {
        font-family: 'Segoe UI', Arial, sans-serif;
        font-size: 11px;
        font-weight: bold;
        fill: #c9d1d9;
      }
      .level-text {
        font-family: 'Segoe UI', Arial, sans-serif;
        font-size: 10px;
        fill: #8b949e;
      }
      .button-text {
        font-family: 'Segoe UI', Arial, sans-serif;
        font-size: 10px;
        font-weight: bold;
        fill: #ffffff;
      }
      .title {
        font-family: 'Segoe UI', Arial, sans-serif;
        font-size: 16px;
        font-weight: bold;
        fill: #58a6ff;
      }
      .clickable {
        cursor: pointer;
      }
      .pulse {
        animation: pulse 2s infinite;
      }
      .float {
        animation: float 3s infinite ease-in-out;
      }
    </style>
    
    <!-- Icons for skills -->
    <symbol id="business-icon" viewBox="0 0 20 20">
      <path fill="#238636" d="M10 0C4.48 0 0 4.48 0 10s4.48 10 10 10 10-4.48 10-10S15.52 0 10 0zm1 15H9v-6h2v6zm0-8H9V5h2v2z"/>
    </symbol>
    
    <symbol id="coding-icon" viewBox="0 0 20 20">
      <path fill="#58a6ff" d="M7 4l-6 6 6 6 1.41-1.41L3.83 10l4.58-4.59L7 4zm6 0l1.41 1.41L16.17 10l-4.58 4.59L13 16l6-6-6-6z"/>
    </symbol>
    
    <symbol id="hacking-icon" viewBox="0 0 20 20">
      <path fill="#da3633" d="M10 0C4.48 0 0 4.48 0 10s4.48 10 10 10 10-4.48 10-10S15.52 0 10 0zM2 10c0-4.42 3.58-8 8-8 1.85 0 3.55.63 4.9 1.69L3.69 14.9C2.63 13.55 2 11.85 2 10zm8 8c-1.85 0-3.55-.63-4.9-1.69L16.31 5.1C17.37 6.45 18 8.15 18 10c0 4.42-3.58 8-8 8z"/>
    </symbol>
    
    <symbol id="seo-icon" viewBox="0 0 20 20">
      <path fill="#a371f7" d="M10 0C4.48 0 0 4.48 0 10s4.48 10 10 10 10-4.48 10-10S15.52 0 10 0zm0 18c-4.41 0-8-3.59-8-8s3.59-8 8-8 8 3.59 8 8-3.59 8-8 8zm.5-13H9v6l5.25 3.15.75-1.23-4.5-2.67V5z"/>
    </symbol>
    
    <symbol id="design-icon" viewBox="0 0 20 20">
      <path fill="#e3b341" d="M15.5 1h-11C3.67 1 3 1.67 3 2.5v15C3 18.33 3.67 19 4.5 19h11c.83 0 1.5-.67 1.5-1.5v-15C17 1.67 16.33 1 15.5 1zM16 17.5c0 .28-.22.5-.5.5h-11c-.28 0-.5-.22-.5-.5v-15c0-.28.22-.5.5-.5h11c.28 0 .5.22.5.5v15zM6 5h8v2H6V5zm0 4h8v2H6V9zm0 4h5v2H6v-2z"/>
    </symbol>
    
    <symbol id="click-effect" viewBox="0 0 30 30">
      <circle cx="15" cy="15" r="14" stroke="#58a6ff" stroke-width="2" fill="none">
        <animate attributeName="r" from="5" to="14" dur="0.5s" begin="click" fill="freeze"/>
        <animate attributeName="opacity" from="1" to="0" dur="0.5s" begin="click" fill="freeze"/>
      </circle>
    </symbol>
    
    <!-- Background pattern -->
    <pattern id="grid" width="20" height="20" patternUnits="userSpaceOnUse">
      <path d="M 20 0 L 0 0 0 20" fill="none" stroke="#30363d" stroke-width="0.5"/>
    </pattern>
    
    <!-- Gradient for progress bars -->
    <linearGradient id="business-gradient" x1="0%" y1="0%" x2="100%" y2="0%">
      <stop offset="0%" stop-color="#238636" stop-opacity="0.7"/>
      <stop offset="100%" stop-color="#238636" stop-opacity="1"/>
    </linearGradient>
    
    <linearGradient id="coding-gradient" x1="0%" y1="0%" x2="100%" y2="0%">
      <stop offset="0%" stop-color="#58a6ff" stop-opacity="0.7"/>
      <stop offset="100%" stop-color="#58a6ff" stop-opacity="1"/>
    </linearGradient>
    
    <linearGradient id="hacking-gradient" x1="0%" y1="0%" x2="100%" y2="0%">
      <stop offset="0%" stop-color="#da3633" stop-opacity="0.7"/>
      <stop offset="100%" stop-color="#da3633" stop-opacity="1"/>
    </linearGradient>
    
    <linearGradient id="seo-gradient" x1="0%" y1="0%" x2="100%" y2="0%">
      <stop offset="0%" stop-color="#a371f7" stop-opacity="0.7"/>
      <stop offset="100%" stop-color="#a371f7" stop-opacity="1"/>
    </linearGradient>
    
    <linearGradient id="design-gradient" x1="0%" y1="0%" x2="100%" y2="0%">
      <stop offset="0%" stop-color="#e3b341" stop-opacity="0.7"/>
      <stop offset="100%" stop-color="#e3b341" stop-opacity="1"/>
    </linearGradient>
  </defs>
  
  <!-- Background -->
  <rect width="100%" height="100%" fill="#0d1117"/>
  <rect width="100%" height="100%" fill="url(#grid)"/>
  
  <!-- Title -->
  <text x="200" y="30" text-anchor="middle" class="title">GitHub Skills Game</text>
  <text x="200" y="50" text-anchor="middle" font-size="10" fill="#8b949e">Click on skills to level up!</text>
  
  <!-- Game stats -->
  <g>
    <rect x="20" y="70" width="360" height="40" rx="5" fill="#161b22" stroke="#30363d" stroke-width="1"/>
    <text x="40" y="95" class="level-text">Total Points: <tspan id="total-points" fill="#c9d1d9">0</tspan></text>
    <text x="200" y="95" class="level-text">Level: <tspan id="level" fill="#58a6ff">1</tspan></text>
    <text x="320" y="95" class="level-text">Clicks: <tspan id="clicks" fill="#c9d1d9">0</tspan></text>
  </g>
  
  <!-- Skills Section -->
  <!-- Business Skill -->
  <g id="business-skill" class="clickable" onclick="incrementSkill('business')">
    <rect x="30" y="130" width="70" height="70" rx="5" fill="#161b22" stroke="#30363d" stroke-width="1"/>
    <use xlink:href="#business-icon" x="50" y="145" width="20" height="20"/>
    <text x="65" y="185" text-anchor="middle" class="skill-text">BUSINESS</text>
    <rect x="30" y="195" width="70" height="8" rx="4" fill="#30363d"/>
    <rect id="business-bar" x="30" y="195" width="10" height="8" rx="4" fill="url(#business-gradient)"/>
    <text x="65" y="215" text-anchor="middle" class="level-text">Level <tspan id="business-level">1</tspan></text>
  </g>
  
  <!-- Coding Skill -->
  <g id="coding-skill" class="clickable" onclick="incrementSkill('coding')">
    <rect x="115" y="130" width="70" height="70" rx="5" fill="#161b22" stroke="#30363d" stroke-width="1"/>
    <use xlink:href="#coding-icon" x="135" y="145" width="20" height="20"/>
    <text x="150" y="185" text-anchor="middle" class="skill-text">CODING</text>
    <rect x="115" y="195" width="70" height="8" rx="4" fill="#30363d"/>
    <rect id="coding-bar" x="115" y="195" width="10" height="8" rx="4" fill="url(#coding-gradient)"/>
    <text x="150" y="215" text-anchor="middle" class="level-text">Level <tspan id="coding-level">1</tspan></text>
  </g>
  
  <!-- Hacking Skill -->
  <g id="hacking-skill" class="clickable" onclick="incrementSkill('hacking')">
    <rect x="200" y="130" width="70" height="70" rx="5" fill="#161b22" stroke="#30363d" stroke-width="1"/>
    <use xlink:href="#hacking-icon" x="220" y="145" width="20" height="20"/>
    <text x="235" y="185" text-anchor="middle" class="skill-text">HACKING</text>
    <rect x="200" y="195" width="70" height="8" rx="4" fill="#30363d"/>
    <rect id="hacking-bar" x="200" y="195" width="10" height="8" rx="4" fill="url(#hacking-gradient)"/>
    <text x="235" y="215" text-anchor="middle" class="level-text">Level <tspan id="hacking-level">1</tspan></text>
  </g>
  
  <!-- SEO Skill -->
  <g id="seo-skill" class="clickable" onclick="incrementSkill('seo')">
    <rect x="285" y="130" width="70" height="70" rx="5" fill="#161b22" stroke="#30363d" stroke-width="1"/>
    <use xlink:href="#seo-icon" x="305" y="145" width="20" height="20"/>
    <text x="320" y="185" text-anchor="middle" class="skill-text">SEO</text>
    <rect x="285" y="195" width="70" height="8" rx="4" fill="#30363d"/>
    <rect id="seo-bar" x="285" y="195" width="10" height="8" rx="4" fill="url(#seo-gradient)"/>
    <text x="320" y="215" text-anchor="middle" class="level-text">Level <tspan id="seo-level">1</tspan></text>
  </g>
  
  <!-- Design Skill -->
  <g id="design-skill" class="clickable" onclick="incrementSkill('design')">
    <rect x="165" y="230" width="70" height="70" rx="5" fill="#161b22" stroke="#30363d" stroke-width="1"/>
    <use xlink:href="#design-icon" x="185" y="245" width="20" height="20"/>
    <text x="200" y="285" text-anchor="middle" class="skill-text">DESIGN</text>
    <rect x="165" y="295" width="70" height="8" rx="4" fill="#30363d"/>
    <rect id="design-bar" x="165" y="295" width="10" height="8" rx="4" fill="url(#design-gradient)"/>
    <text x="200" y="315" text-anchor="middle" class="level-text">Level <tspan id="design-level">1</tspan></text>
  </g>
  
  <!-- Instructions -->
  <text x="200" y="270" text-anchor="middle" font-size="9" fill="#8b949e">
    Click on any skill to increase its level!
  </text>
  
  <!-- Hidden animation elements -->
  <g id="click-animations" display="none">
    <use xlink:href="#click-effect" id="click-effect-template"/>
  </g>
  
  <!-- JavaScript for interactivity -->
  <script type="application/ecmascript">
    <![CDATA[
      // Game state
      let gameState = {
        business: { level: 1, points: 0 },
        coding: { level: 1, points: 0 },
        hacking: { level: 1, points: 0 },
        seo: { level: 1, points: 0 },
        design: { level: 1, points: 0 },
        totalPoints: 0,
        clicks: 0,
        level: 1
      };
      
      // Load saved game state
      function loadGameState() {
        try {
          const saved = localStorage.getItem('githubSkillsGame');
          if (saved) {
            gameState = JSON.parse(saved);
            updateDisplay();
          }
        } catch(e) {
          // If there's an error, start fresh
        }
      }
      
      // Save game state
      function saveGameState() {
        try {
          localStorage.setItem('githubSkillsGame', JSON.stringify(gameState));
        } catch(e) {
          // Storage might be unavailable
        }
      }
      
      // Increment a skill
      function incrementSkill(skill) {
        // Increase skill points
        gameState[skill].points += Math.floor(Math.random() * 3) + 1;
        gameState.clicks++;
        
        // Check for level up (every 10 points)
        if (gameState[skill].points >= gameState[skill].level * 10) {
          gameState[skill].level++;
          gameState[skill].points = 0;
          
          // Show level up effect
          showLevelUp(skill);
        }
        
        // Update total points and overall level
        gameState.totalPoints++;
        gameState.level = Math.floor(gameState.totalPoints / 50) + 1;
        
        // Update display
        updateDisplay();
        
        // Save game
        saveGameState();
        
        // Show click effect
        showClickEffect(event);
      }
      
      // Update the display
      function updateDisplay() {
        // Update skill levels
        document.getElementById('business-level').textContent = gameState.business.level;
        document.getElementById('coding-level').textContent = gameState.coding.level;
        document.getElementById('hacking-level').textContent = gameState.hacking.level;
        document.getElementById('seo-level').textContent = gameState.seo.level;
        document.getElementById('design-level').textContent = gameState.design.level;
        
        // Update progress bars
        updateProgressBar('business', gameState.business.points, gameState.business.level * 10);
        updateProgressBar('coding', gameState.coding.points, gameState.coding.level * 10);
        updateProgressBar('hacking', gameState.hacking.points, gameState.hacking.level * 10);
        updateProgressBar('seo', gameState.seo.points, gameState.seo.level * 10);
        updateProgressBar('design', gameState.design.points, gameState.design.level * 10);
        
        // Update stats
        document.getElementById('total-points').textContent = gameState.totalPoints;
        document.getElementById('level').textContent = gameState.level;
        document.getElementById('clicks').textContent = gameState.clicks;
      }
      
      // Update progress bar width
      function updateProgressBar(skill, points, maxPoints) {
        const bar = document.getElementById(skill + '-bar');
        const width = (points / maxPoints) * 70;
        bar.setAttribute('width', Math.max(10, width));
      }
      
      // Show click effect
      function showClickEffect(evt) {
        // Create a new click effect
        const effect = document.getElementById('click-effect-template').cloneNode(true);
        effect.setAttribute('id', 'click-effect-' + Date.now());
        effect.setAttribute('x', evt.clientX ? evt.clientX - 15 : 100);
        effect.setAttribute('y', evt.clientY ? evt.clientY - 15 : 100);
        effect.setAttribute('display', 'inline');
        
        // Add to animations container
        const container = document.getElementById('click-animations');
        container.appendChild(effect);
        
        // Remove after animation completes
        setTimeout(() => {
          if (effect.parentNode) {
            container.removeChild(effect);
          }
        }, 600);
        
        // Trigger animation
        const circle = effect.querySelector('circle');
        if (circle) {
          circle.beginElement();
        }
      }
      
      // Show level up effect
      function showLevelUp(skill) {
        const skillElement = document.getElementById(skill + '-skill');
        const rect = skillElement.querySelector('rect');
        
        // Flash animation
        const originalFill = rect.getAttribute('fill');
        rect.setAttribute('fill', '#58a6ff');
        
        setTimeout(() => {
          rect.setAttribute('fill', originalFill);
        }, 300);
        
        setTimeout(() => {
          rect.setAttribute('fill', '#58a6ff');
        }, 500);
        
        setTimeout(() => {
          rect.setAttribute('fill', originalFill);
        }, 700);
      }
      
      // Reset game
      function resetGame() {
        if (confirm('Reset all progress?')) {
          gameState = {
            business: { level: 1, points: 0 },
            coding: { level: 1, points: 0 },
            hacking: { level: 1, points: 0 },
            seo: { level: 1, points: 0 },
            design: { level: 1, points: 0 },
            totalPoints: 0,
            clicks: 0,
            level: 1
          };
          
          updateDisplay();
          saveGameState();
        }
      }
      
      // Add reset button functionality
      document.addEventListener('DOMContentLoaded', function() {
        // Add a reset button (hidden but accessible via context menu)
        const svg = document.querySelector('svg');
        svg.addEventListener('contextmenu', function(e) {
          e.preventDefault();
          resetGame();
        });
        
        // Load saved game on startup
        loadGameState();
      });
      
      // Initialize game
      loadGameState();
    ]]>
  </script>
  
  <!-- Hidden reset hint -->
  <text x="200" y="295" text-anchor="middle" font-size="8" fill="#30363d" opacity="0.5">
    Right-click to reset game
  </text>
</svg>
